<svg xmlns="http://www.w3.org/2000/svg" xmlns:xlink="http://www.w3.org/1999/xlink" width="500" zoomAndPan="magnify" viewBox="0 0 375 374.999991" height="500" preserveAspectRatio="xMidYMid meet" version="1.0"><defs><g/><clipPath id="744b4ddc01"><path d="M 7 70.027344 L 177 70.027344 L 177 198.277344 L 7 198.277344 Z M 7 70.027344 " clip-rule="nonzero"/></clipPath><clipPath id="ed09345df8"><path d="M 198 70.027344 L 368 70.027344 L 368 198.277344 L 198 198.277344 Z M 198 70.027344 " clip-rule="nonzero"/></clipPath></defs><g clip-path="url(#744b4ddc01)"><path fill="#000000" d="M 19.410156 100.214844 C 19.246094 99.917969 19.117188 99.625 18.953125 99.328125 C 10.628906 82.828125 10.101562 70.109375 9.019531 70.304688 C 6.824219 70.734375 4.039062 123.582031 34.652344 156.15625 C 36.359375 157.996094 38.128906 159.671875 39.898438 161.25 C 53.042969 172.886719 69.726562 179.6875 87.195312 180.871094 C 106.992188 182.21875 126.757812 183.535156 146.554688 184.882812 C 150.03125 185.113281 152.75 188.035156 152.75 191.519531 C 152.75 195.203125 155.734375 198.191406 159.40625 198.191406 L 176.023438 198.191406 L 176.023438 150.699219 C 149.800781 150.042969 123.546875 149.351562 97.324219 148.695312 C 64.515625 147.871094 34.554688 129.402344 19.410156 100.214844 Z M 19.410156 100.214844 " fill-opacity="1" fill-rule="nonzero"/></g><g clip-path="url(#ed09345df8)"><path fill="#000000" d="M 365.839844 70.304688 C 364.757812 70.109375 364.234375 82.828125 355.90625 99.328125 C 355.742188 99.625 355.613281 99.917969 355.449219 100.214844 C 340.304688 129.402344 310.378906 147.871094 277.570312 148.695312 C 251.347656 149.351562 225.09375 150.042969 198.871094 150.699219 L 198.871094 198.160156 L 215.488281 198.160156 C 219.160156 198.160156 222.140625 195.167969 222.140625 191.488281 C 222.140625 187.972656 224.863281 185.078125 228.335938 184.847656 C 248.132812 183.5 267.898438 182.1875 287.699219 180.839844 C 305.167969 179.65625 321.851562 172.851562 334.996094 161.21875 C 336.765625 159.640625 338.535156 157.929688 340.238281 156.121094 C 370.789062 123.582031 368.003906 70.734375 365.839844 70.304688 Z M 365.839844 70.304688 " fill-opacity="1" fill-rule="nonzero"/></g><g fill="#f8bb74" fill-opacity="1"><g transform="translate(4.734366, 258.276194)"><g><path d="M 10.828125 0.28125 C 9.921875 0.28125 8.671875 0.253906 7.078125 0.203125 C 5.484375 0.160156 4.160156 0.09375 3.109375 0 C 2.523438 -0.09375 2.039062 -0.332031 1.65625 -0.71875 C 1.269531 -1.101562 1.078125 -1.609375 1.078125 -2.234375 C 1.179688 -6.566406 1.390625 -10.910156 1.703125 -15.265625 C 2.015625 -19.628906 2.382812 -23.867188 2.8125 -27.984375 C 3.25 -32.109375 3.679688 -35.9375 4.109375 -39.46875 C 4.546875 -43.007812 4.957031 -46.109375 5.34375 -48.765625 C 5.582031 -49.816406 6.28125 -50.414062 7.4375 -50.5625 C 8.113281 -50.65625 8.957031 -50.710938 9.96875 -50.734375 C 10.976562 -50.765625 11.988281 -50.789062 13 -50.8125 C 14.007812 -50.84375 14.851562 -50.859375 15.53125 -50.859375 C 16.59375 -50.859375 17.894531 -50.832031 19.4375 -50.78125 C 20.976562 -50.726562 22.253906 -50.65625 23.265625 -50.5625 C 24.128906 -50.46875 24.847656 -50.210938 25.421875 -49.796875 C 26.003906 -49.390625 26.441406 -48.707031 26.734375 -47.75 C 26.972656 -46.976562 27.234375 -45.941406 27.515625 -44.640625 C 27.804688 -43.335938 28.117188 -41.972656 28.453125 -40.546875 C 28.796875 -39.128906 29.113281 -37.820312 29.40625 -36.625 C 30.070312 -34.3125 30.753906 -32.40625 31.453125 -30.90625 C 32.148438 -29.414062 32.882812 -28.671875 33.65625 -28.671875 C 34.382812 -28.671875 35.082031 -29.40625 35.75 -30.875 C 36.425781 -32.34375 37.078125 -34.140625 37.703125 -36.265625 C 38.234375 -38.285156 38.765625 -40.398438 39.296875 -42.609375 C 39.828125 -44.828125 40.257812 -46.539062 40.59375 -47.75 C 40.832031 -48.707031 41.238281 -49.390625 41.8125 -49.796875 C 42.394531 -50.210938 43.117188 -50.46875 43.984375 -50.5625 C 44.992188 -50.65625 46.269531 -50.726562 47.8125 -50.78125 C 49.351562 -50.832031 50.628906 -50.859375 51.640625 -50.859375 C 52.660156 -50.859375 53.988281 -50.832031 55.625 -50.78125 C 57.257812 -50.726562 58.65625 -50.65625 59.8125 -50.5625 C 60.96875 -50.414062 61.664062 -49.816406 61.90625 -48.765625 C 62.4375 -45.191406 63 -40.878906 63.59375 -35.828125 C 64.195312 -30.773438 64.738281 -25.359375 65.21875 -19.578125 C 65.707031 -13.796875 66.023438 -8.015625 66.171875 -2.234375 C 66.171875 -1.609375 65.976562 -1.101562 65.59375 -0.71875 C 65.207031 -0.332031 64.722656 -0.09375 64.140625 0 C 63.128906 0.09375 61.84375 0.160156 60.28125 0.203125 C 58.71875 0.253906 57.476562 0.28125 56.5625 0.28125 C 55.9375 0.28125 55.09375 0.28125 54.03125 0.28125 C 52.96875 0.28125 51.894531 0.253906 50.8125 0.203125 C 49.726562 0.160156 48.851562 0.09375 48.1875 0 C 47.601562 -0.09375 47.117188 -0.332031 46.734375 -0.71875 C 46.347656 -1.101562 46.179688 -1.632812 46.234375 -2.3125 C 46.421875 -3.800781 46.570312 -5.492188 46.6875 -7.390625 C 46.8125 -9.296875 46.910156 -11.203125 46.984375 -13.109375 C 47.054688 -15.015625 47.070312 -16.664062 47.03125 -18.0625 C 46.976562 -20.90625 46.78125 -23.082031 46.4375 -24.59375 C 46.101562 -26.113281 45.625 -26.875 45 -26.875 C 44.226562 -26.875 43.578125 -26.066406 43.046875 -24.453125 C 42.515625 -22.835938 41.9375 -20.898438 41.3125 -18.640625 C 40.976562 -17.335938 40.601562 -16.023438 40.1875 -14.703125 C 39.78125 -13.378906 39.382812 -12.066406 39 -10.765625 C 37.945312 -7.347656 36.144531 -5.640625 33.59375 -5.640625 C 32.238281 -5.640625 31.148438 -6.082031 30.328125 -6.96875 C 29.515625 -7.863281 28.84375 -9.128906 28.3125 -10.765625 C 27.445312 -13.460938 26.628906 -16.179688 25.859375 -18.921875 C 25.328125 -21.085938 24.785156 -22.914062 24.234375 -24.40625 C 23.679688 -25.90625 23.019531 -26.65625 22.25 -26.65625 C 21.625 -26.65625 21.140625 -25.882812 20.796875 -24.34375 C 20.460938 -22.800781 20.269531 -20.609375 20.21875 -17.765625 C 20.21875 -16.367188 20.253906 -14.742188 20.328125 -12.890625 C 20.398438 -11.035156 20.492188 -9.171875 20.609375 -7.296875 C 20.734375 -5.421875 20.867188 -3.757812 21.015625 -2.3125 C 21.117188 -1.632812 20.960938 -1.101562 20.546875 -0.71875 C 20.140625 -0.332031 19.644531 -0.09375 19.0625 0 C 18.394531 0.09375 17.53125 0.160156 16.46875 0.203125 C 15.40625 0.253906 14.359375 0.28125 13.328125 0.28125 C 12.296875 0.28125 11.460938 0.28125 10.828125 0.28125 Z M 10.828125 0.28125 "/></g></g></g><g fill="#f8bb74" fill-opacity="1"><g transform="translate(71.973597, 258.276194)"><g><path d="M 16.1875 0.578125 C 11.363281 0.578125 7.6875 -0.898438 5.15625 -3.859375 C 2.632812 -6.828125 1.347656 -11.25 1.296875 -17.125 C 1.347656 -18.945312 1.457031 -21.0625 1.625 -23.46875 C 1.789062 -25.882812 2.019531 -28.316406 2.3125 -30.765625 C 2.601562 -33.222656 2.890625 -35.390625 3.171875 -37.265625 C 3.316406 -38.472656 3.945312 -39.148438 5.0625 -39.296875 C 6.019531 -39.390625 7.195312 -39.457031 8.59375 -39.5 C 9.988281 -39.550781 11.097656 -39.578125 11.921875 -39.578125 C 12.785156 -39.578125 14 -39.550781 15.5625 -39.5 C 17.132812 -39.457031 18.425781 -39.390625 19.4375 -39.296875 C 20.0625 -39.242188 20.566406 -39.015625 20.953125 -38.609375 C 21.335938 -38.203125 21.457031 -37.6875 21.3125 -37.0625 C 20.832031 -34.550781 20.410156 -31.992188 20.046875 -29.390625 C 19.679688 -26.796875 19.5 -24.5625 19.5 -22.6875 C 19.5 -20.375 19.921875 -18.347656 20.765625 -16.609375 C 21.609375 -14.878906 22.921875 -14.015625 24.703125 -14.015625 C 25.804688 -14.015625 26.734375 -14.445312 27.484375 -15.3125 C 28.234375 -16.175781 28.785156 -17.316406 29.140625 -18.734375 C 29.503906 -20.160156 29.6875 -21.671875 29.6875 -23.265625 C 29.6875 -24.367188 29.648438 -25.703125 29.578125 -27.265625 C 29.503906 -28.828125 29.394531 -30.472656 29.25 -32.203125 C 29.101562 -33.941406 28.9375 -35.5625 28.75 -37.0625 C 28.695312 -37.6875 28.835938 -38.191406 29.171875 -38.578125 C 29.515625 -38.960938 30 -39.203125 30.625 -39.296875 C 31.59375 -39.390625 32.859375 -39.457031 34.421875 -39.5 C 35.984375 -39.550781 37.222656 -39.578125 38.140625 -39.578125 C 39.054688 -39.578125 40.113281 -39.550781 41.3125 -39.5 C 42.519531 -39.457031 43.601562 -39.390625 44.5625 -39.296875 C 45.769531 -39.148438 46.421875 -38.453125 46.515625 -37.203125 C 47.046875 -30.359375 47.421875 -24.179688 47.640625 -18.671875 C 47.859375 -13.160156 47.96875 -7.707031 47.96875 -2.3125 C 47.96875 -1.007812 47.335938 -0.238281 46.078125 0 C 45.171875 0.144531 43.984375 0.226562 42.515625 0.25 C 41.046875 0.269531 39.828125 0.28125 38.859375 0.28125 C 37.847656 0.28125 36.59375 0.253906 35.09375 0.203125 C 33.601562 0.160156 32.304688 0.09375 31.203125 0 C 30.671875 -0.09375 30.1875 -0.320312 29.75 -0.6875 C 29.320312 -1.050781 29.179688 -1.546875 29.328125 -2.171875 C 29.617188 -3.710938 29.832031 -5.035156 29.96875 -6.140625 C 30.113281 -7.242188 30.1875 -8.351562 30.1875 -9.46875 C 30.1875 -10.238281 29.984375 -10.632812 29.578125 -10.65625 C 29.171875 -10.675781 28.847656 -10.347656 28.609375 -9.671875 C 27.492188 -6.347656 25.863281 -3.804688 23.71875 -2.046875 C 21.582031 -0.296875 19.070312 0.578125 16.1875 0.578125 Z M 16.1875 0.578125 "/></g></g></g><g fill="#f8bb74" fill-opacity="1"><g transform="translate(121.229399, 258.276194)"><g><path d="M 16.1875 0.578125 C 11.363281 0.578125 7.6875 -0.898438 5.15625 -3.859375 C 2.632812 -6.828125 1.347656 -11.25 1.296875 -17.125 C 1.347656 -18.945312 1.457031 -21.0625 1.625 -23.46875 C 1.789062 -25.882812 2.019531 -28.316406 2.3125 -30.765625 C 2.601562 -33.222656 2.890625 -35.390625 3.171875 -37.265625 C 3.316406 -38.472656 3.945312 -39.148438 5.0625 -39.296875 C 6.019531 -39.390625 7.195312 -39.457031 8.59375 -39.5 C 9.988281 -39.550781 11.097656 -39.578125 11.921875 -39.578125 C 12.785156 -39.578125 14 -39.550781 15.5625 -39.5 C 17.132812 -39.457031 18.425781 -39.390625 19.4375 -39.296875 C 20.0625 -39.242188 20.566406 -39.015625 20.953125 -38.609375 C 21.335938 -38.203125 21.457031 -37.6875 21.3125 -37.0625 C 20.832031 -34.550781 20.410156 -31.992188 20.046875 -29.390625 C 19.679688 -26.796875 19.5 -24.5625 19.5 -22.6875 C 19.5 -20.375 19.921875 -18.347656 20.765625 -16.609375 C 21.609375 -14.878906 22.921875 -14.015625 24.703125 -14.015625 C 25.804688 -14.015625 26.734375 -14.445312 27.484375 -15.3125 C 28.234375 -16.175781 28.785156 -17.316406 29.140625 -18.734375 C 29.503906 -20.160156 29.6875 -21.671875 29.6875 -23.265625 C 29.6875 -24.367188 29.648438 -25.703125 29.578125 -27.265625 C 29.503906 -28.828125 29.394531 -30.472656 29.25 -32.203125 C 29.101562 -33.941406 28.9375 -35.5625 28.75 -37.0625 C 28.695312 -37.6875 28.835938 -38.191406 29.171875 -38.578125 C 29.515625 -38.960938 30 -39.203125 30.625 -39.296875 C 31.59375 -39.390625 32.859375 -39.457031 34.421875 -39.5 C 35.984375 -39.550781 37.222656 -39.578125 38.140625 -39.578125 C 39.054688 -39.578125 40.113281 -39.550781 41.3125 -39.5 C 42.519531 -39.457031 43.601562 -39.390625 44.5625 -39.296875 C 45.769531 -39.148438 46.421875 -38.453125 46.515625 -37.203125 C 47.046875 -30.359375 47.421875 -24.179688 47.640625 -18.671875 C 47.859375 -13.160156 47.96875 -7.707031 47.96875 -2.3125 C 47.96875 -1.007812 47.335938 -0.238281 46.078125 0 C 45.171875 0.144531 43.984375 0.226562 42.515625 0.25 C 41.046875 0.269531 39.828125 0.28125 38.859375 0.28125 C 37.847656 0.28125 36.59375 0.253906 35.09375 0.203125 C 33.601562 0.160156 32.304688 0.09375 31.203125 0 C 30.671875 -0.09375 30.1875 -0.320312 29.75 -0.6875 C 29.320312 -1.050781 29.179688 -1.546875 29.328125 -2.171875 C 29.617188 -3.710938 29.832031 -5.035156 29.96875 -6.140625 C 30.113281 -7.242188 30.1875 -8.351562 30.1875 -9.46875 C 30.1875 -10.238281 29.984375 -10.632812 29.578125 -10.65625 C 29.171875 -10.675781 28.847656 -10.347656 28.609375 -9.671875 C 27.492188 -6.347656 25.863281 -3.804688 23.71875 -2.046875 C 21.582031 -0.296875 19.070312 0.578125 16.1875 0.578125 Z M 16.1875 0.578125 "/></g></g></g><g fill="#d60d61" fill-opacity="1"><g transform="translate(170.496074, 258.276194)"><g><path d="M 24.5625 0.578125 C 23.257812 0.578125 21.664062 0.5625 19.78125 0.53125 C 17.90625 0.507812 15.957031 0.460938 13.9375 0.390625 C 11.914062 0.316406 10 0.242188 8.1875 0.171875 C 6.382812 0.109375 4.882812 0.0507812 3.6875 0 C 3.0625 -0.0507812 2.53125 -0.300781 2.09375 -0.75 C 1.65625 -1.207031 1.4375 -1.753906 1.4375 -2.390625 C 1.4375 -8.160156 1.53125 -13.921875 1.71875 -19.671875 C 1.914062 -25.429688 2.160156 -30.828125 2.453125 -35.859375 C 2.742188 -40.890625 3.035156 -45.191406 3.328125 -48.765625 C 3.421875 -49.867188 4.046875 -50.46875 5.203125 -50.5625 C 9.242188 -50.800781 13.175781 -50.921875 17 -50.921875 C 20.832031 -50.921875 24.84375 -50.921875 29.03125 -50.921875 C 35.78125 -50.921875 40.875 -50.101562 44.3125 -48.46875 C 47.757812 -46.832031 49.484375 -44.304688 49.484375 -40.890625 C 49.484375 -38.191406 48.191406 -35.722656 45.609375 -33.484375 C 43.035156 -31.242188 39.34375 -29.640625 34.53125 -28.671875 C 33.851562 -28.429688 33.5 -28.109375 33.46875 -27.703125 C 33.445312 -27.296875 33.800781 -26.972656 34.53125 -26.734375 C 38.476562 -26.003906 41.738281 -24.894531 44.3125 -23.40625 C 46.894531 -21.914062 48.8125 -20.226562 50.0625 -18.34375 C 51.3125 -16.46875 51.9375 -14.539062 51.9375 -12.5625 C 51.9375 -10.0625 51.128906 -7.96875 49.515625 -6.28125 C 47.898438 -4.59375 45.753906 -3.242188 43.078125 -2.234375 C 40.410156 -1.222656 37.460938 -0.5 34.234375 -0.0625 C 31.015625 0.363281 27.789062 0.578125 24.5625 0.578125 Z M 22.25 -30.125 C 25.664062 -30.601562 28.023438 -31.367188 29.328125 -32.421875 C 30.628906 -33.484375 31.28125 -34.59375 31.28125 -35.75 C 31.28125 -38.113281 29.253906 -39.296875 25.203125 -39.296875 C 24.722656 -39.296875 24.191406 -39.296875 23.609375 -39.296875 C 23.035156 -39.296875 22.554688 -39.269531 22.171875 -39.21875 C 20.828125 -39.21875 20.15625 -38.617188 20.15625 -37.421875 C 20.0625 -35.492188 20.0625 -33.566406 20.15625 -31.640625 C 20.15625 -31.015625 20.347656 -30.582031 20.734375 -30.34375 C 21.117188 -30.101562 21.625 -30.03125 22.25 -30.125 Z M 22.53125 -12.9375 C 23.15625 -12.882812 23.863281 -12.859375 24.65625 -12.859375 C 25.457031 -12.859375 26.171875 -12.859375 26.796875 -12.859375 C 28.722656 -12.859375 30.25 -13.28125 31.375 -14.125 C 32.507812 -14.96875 33.078125 -16.132812 33.078125 -17.625 C 33.078125 -19.164062 32.140625 -20.515625 30.265625 -21.671875 C 28.390625 -22.828125 25.742188 -23.617188 22.328125 -24.046875 C 21.648438 -24.191406 21.117188 -24.082031 20.734375 -23.71875 C 20.347656 -23.363281 20.15625 -22.847656 20.15625 -22.171875 C 20.101562 -19.859375 20.101562 -17.546875 20.15625 -15.234375 C 20.15625 -13.703125 20.945312 -12.9375 22.53125 -12.9375 Z M 22.53125 -12.9375 "/></g></g></g><g fill="#d60d61" fill-opacity="1"><g transform="translate(223.290779, 258.276194)"><g><path d="M 12.28125 0.578125 C 8.625 0.578125 5.804688 -0.285156 3.828125 -2.015625 C 1.847656 -3.753906 0.859375 -6.523438 0.859375 -10.328125 C 0.859375 -12.828125 1.664062 -14.929688 3.28125 -16.640625 C 4.894531 -18.359375 7.0625 -19.722656 9.78125 -20.734375 C 12.507812 -21.742188 15.484375 -22.441406 18.703125 -22.828125 C 20.972656 -23.117188 22.695312 -23.457031 23.875 -23.84375 C 25.050781 -24.226562 25.640625 -24.898438 25.640625 -25.859375 C 25.640625 -26.535156 25.226562 -27.148438 24.40625 -27.703125 C 23.59375 -28.253906 22.148438 -28.53125 20.078125 -28.53125 C 18.828125 -28.53125 17.394531 -28.347656 15.78125 -27.984375 C 14.164062 -27.628906 12.523438 -27.125 10.859375 -26.46875 C 9.203125 -25.820312 7.675781 -25.015625 6.28125 -24.046875 C 5.65625 -23.421875 5.039062 -23.265625 4.4375 -23.578125 C 3.84375 -23.890625 3.546875 -24.53125 3.546875 -25.5 C 3.492188 -27.039062 3.515625 -28.710938 3.609375 -30.515625 C 3.703125 -32.328125 3.800781 -33.976562 3.90625 -35.46875 C 4 -36.664062 4.453125 -37.4375 5.265625 -37.78125 C 6.671875 -38.257812 8.753906 -38.726562 11.515625 -39.1875 C 14.285156 -39.644531 17.695312 -39.875 21.75 -39.875 C 26.65625 -39.875 30.550781 -39.257812 33.4375 -38.03125 C 36.332031 -36.800781 38.453125 -35.113281 39.796875 -32.96875 C 41.148438 -30.832031 41.96875 -28.390625 42.25 -25.640625 C 42.5 -23.617188 42.726562 -21.25 42.9375 -18.53125 C 43.15625 -15.8125 43.347656 -13.03125 43.515625 -10.1875 C 43.691406 -7.34375 43.800781 -4.691406 43.84375 -2.234375 C 43.84375 -0.984375 43.21875 -0.238281 41.96875 0 C 41.050781 0.09375 39.914062 0.160156 38.5625 0.203125 C 37.21875 0.253906 36.039062 0.28125 35.03125 0.28125 C 34.070312 0.28125 32.925781 0.253906 31.59375 0.203125 C 30.269531 0.160156 29.101562 0.09375 28.09375 0 C 27.1875 -0.09375 26.476562 -0.40625 25.96875 -0.9375 C 25.457031 -1.46875 25.273438 -2.117188 25.421875 -2.890625 C 25.523438 -3.566406 25.644531 -4.421875 25.78125 -5.453125 C 25.925781 -6.484375 26.023438 -7.382812 26.078125 -8.15625 C 26.128906 -8.882812 25.960938 -9.296875 25.578125 -9.390625 C 25.191406 -9.484375 24.851562 -9.195312 24.5625 -8.53125 C 23.351562 -5.300781 21.65625 -2.972656 19.46875 -1.546875 C 17.28125 -0.128906 14.882812 0.578125 12.28125 0.578125 Z M 21.171875 -11.78125 C 21.796875 -11.78125 22.46875 -11.984375 23.1875 -12.390625 C 23.90625 -12.796875 24.53125 -13.394531 25.0625 -14.1875 C 25.59375 -14.988281 25.859375 -15.941406 25.859375 -17.046875 C 25.859375 -17.867188 25.640625 -18.539062 25.203125 -19.0625 C 24.773438 -19.59375 24.128906 -19.859375 23.265625 -19.859375 C 21.910156 -19.859375 20.664062 -19.390625 19.53125 -18.453125 C 18.40625 -17.515625 17.84375 -16.320312 17.84375 -14.875 C 17.84375 -12.8125 18.953125 -11.78125 21.171875 -11.78125 Z M 21.171875 -11.78125 "/></g></g></g><g fill="#d60d61" fill-opacity="1"><g transform="translate(268.357678, 258.276194)"><g><path d="M 11.203125 0.28125 C 10.140625 0.28125 8.820312 0.253906 7.25 0.203125 C 5.6875 0.160156 4.351562 0.09375 3.25 0 C 2.71875 -0.09375 2.257812 -0.332031 1.875 -0.71875 C 1.488281 -1.101562 1.320312 -1.585938 1.375 -2.171875 C 1.375 -7.847656 1.429688 -12.769531 1.546875 -16.9375 C 1.671875 -21.101562 1.863281 -24.8125 2.125 -28.0625 C 2.394531 -31.3125 2.695312 -34.332031 3.03125 -37.125 C 3.125 -37.65625 3.335938 -38.132812 3.671875 -38.5625 C 4.015625 -39 4.453125 -39.242188 4.984375 -39.296875 C 5.898438 -39.390625 7.09375 -39.457031 8.5625 -39.5 C 10.03125 -39.550781 11.222656 -39.578125 12.140625 -39.578125 C 13.054688 -39.578125 14.210938 -39.550781 15.609375 -39.5 C 17.003906 -39.457031 18.253906 -39.390625 19.359375 -39.296875 C 19.929688 -39.242188 20.421875 -38.960938 20.828125 -38.453125 C 21.242188 -37.953125 21.359375 -37.414062 21.171875 -36.84375 C 20.679688 -35.0625 20.328125 -33.675781 20.109375 -32.6875 C 19.898438 -31.695312 19.769531 -30.625 19.71875 -29.46875 C 19.71875 -28.695312 19.921875 -28.300781 20.328125 -28.28125 C 20.742188 -28.257812 21.070312 -28.5625 21.3125 -29.1875 C 22.5625 -32.75 24.289062 -35.40625 26.5 -37.15625 C 28.71875 -38.914062 31.273438 -39.796875 34.171875 -39.796875 C 38.742188 -39.796875 42.269531 -38 44.75 -34.40625 C 47.226562 -30.820312 48.707031 -26.070312 49.1875 -20.15625 C 49.332031 -18.800781 49.441406 -17.050781 49.515625 -14.90625 C 49.585938 -12.769531 49.644531 -10.554688 49.6875 -8.265625 C 49.738281 -5.984375 49.742188 -3.878906 49.703125 -1.953125 C 49.648438 -0.796875 49.019531 -0.144531 47.8125 0 C 46.613281 0.09375 45.375 0.160156 44.09375 0.203125 C 42.820312 0.253906 41.632812 0.28125 40.53125 0.28125 C 39.375 0.28125 38.117188 0.253906 36.765625 0.203125 C 35.421875 0.160156 34.117188 0.09375 32.859375 0 C 32.335938 -0.09375 31.867188 -0.332031 31.453125 -0.71875 C 31.046875 -1.101562 30.867188 -1.609375 30.921875 -2.234375 C 31.160156 -4.640625 31.363281 -7.007812 31.53125 -9.34375 C 31.695312 -11.6875 31.78125 -13.75 31.78125 -15.53125 C 31.726562 -17.9375 31.171875 -20.019531 30.109375 -21.78125 C 29.054688 -23.539062 27.613281 -24.421875 25.78125 -24.421875 C 23.90625 -24.421875 22.425781 -23.523438 21.34375 -21.734375 C 20.257812 -19.953125 19.71875 -17.859375 19.71875 -15.453125 C 19.769531 -13.523438 19.84375 -11.40625 19.9375 -9.09375 C 20.03125 -6.789062 20.175781 -4.484375 20.375 -2.171875 C 20.46875 -1.546875 20.304688 -1.050781 19.890625 -0.6875 C 19.484375 -0.320312 19.015625 -0.09375 18.484375 0 C 17.523438 0.09375 16.320312 0.160156 14.875 0.203125 C 13.4375 0.253906 12.210938 0.28125 11.203125 0.28125 Z M 11.203125 0.28125 "/></g></g></g><g fill="#d60d61" fill-opacity="1"><g transform="translate(319.274602, 258.276194)"><g><path d="M 11.40625 0.28125 C 10.445312 0.28125 9.148438 0.253906 7.515625 0.203125 C 5.878906 0.160156 4.503906 0.09375 3.390625 0 C 2.859375 -0.09375 2.398438 -0.332031 2.015625 -0.71875 C 1.628906 -1.101562 1.4375 -1.585938 1.4375 -2.171875 C 1.4375 -6.359375 1.472656 -10.664062 1.546875 -15.09375 C 1.617188 -19.53125 1.710938 -23.878906 1.828125 -28.140625 C 1.953125 -32.398438 2.109375 -36.367188 2.296875 -40.046875 C 2.492188 -43.734375 2.738281 -46.925781 3.03125 -49.625 C 3.175781 -50.726562 3.851562 -51.351562 5.0625 -51.5 C 6.019531 -51.59375 7.160156 -51.664062 8.484375 -51.71875 C 9.804688 -51.769531 10.878906 -51.796875 11.703125 -51.796875 C 12.273438 -51.796875 13.039062 -51.796875 14 -51.796875 C 14.96875 -51.796875 15.96875 -51.769531 17 -51.71875 C 18.039062 -51.664062 18.898438 -51.59375 19.578125 -51.5 C 20.203125 -51.457031 20.707031 -51.226562 21.09375 -50.8125 C 21.476562 -50.40625 21.625 -49.890625 21.53125 -49.265625 C 21.332031 -47.671875 21.097656 -45.726562 20.828125 -43.4375 C 20.566406 -41.15625 20.328125 -38.820312 20.109375 -36.4375 C 19.898438 -34.050781 19.796875 -31.898438 19.796875 -29.984375 C 19.796875 -29.015625 19.960938 -28.144531 20.296875 -27.375 C 20.628906 -26.601562 21.039062 -26.21875 21.53125 -26.21875 C 22.394531 -26.21875 23.210938 -26.585938 23.984375 -27.328125 C 24.753906 -28.078125 25.453125 -29.03125 26.078125 -30.1875 C 26.703125 -31.34375 27.21875 -32.570312 27.625 -33.875 C 28.039062 -35.175781 28.296875 -36.378906 28.390625 -37.484375 C 28.484375 -38.546875 29.109375 -39.148438 30.265625 -39.296875 C 31.328125 -39.390625 32.613281 -39.457031 34.125 -39.5 C 35.644531 -39.550781 36.9375 -39.578125 38 -39.578125 C 38.957031 -39.578125 40.144531 -39.566406 41.5625 -39.546875 C 42.988281 -39.523438 44.207031 -39.441406 45.21875 -39.296875 C 45.894531 -39.242188 46.398438 -38.988281 46.734375 -38.53125 C 47.066406 -38.070312 47.164062 -37.582031 47.03125 -37.0625 C 46.394531 -33.25 44.582031 -30.019531 41.59375 -27.375 C 38.613281 -24.726562 34.617188 -23.140625 29.609375 -22.609375 C 28.890625 -22.554688 28.53125 -22.3125 28.53125 -21.875 C 28.53125 -21.445312 28.890625 -21.210938 29.609375 -21.171875 C 35.484375 -20.679688 40.164062 -18.921875 43.65625 -15.890625 C 47.15625 -12.859375 49.265625 -8.234375 49.984375 -2.015625 C 50.078125 -1.492188 49.957031 -1.039062 49.625 -0.65625 C 49.289062 -0.269531 48.785156 -0.0234375 48.109375 0.078125 C 47.097656 0.117188 45.84375 0.160156 44.34375 0.203125 C 42.851562 0.253906 41.648438 0.28125 40.734375 0.28125 C 40.066406 0.28125 39.140625 0.28125 37.953125 0.28125 C 36.773438 0.28125 35.570312 0.253906 34.34375 0.203125 C 33.113281 0.160156 32.09375 0.117188 31.28125 0.078125 C 30.125 -0.0664062 29.5 -0.695312 29.40625 -1.8125 C 29.300781 -3.488281 28.992188 -5.207031 28.484375 -6.96875 C 27.984375 -8.726562 27.347656 -10.34375 26.578125 -11.8125 C 25.804688 -13.28125 24.972656 -14.472656 24.078125 -15.390625 C 23.191406 -16.304688 22.316406 -16.765625 21.453125 -16.765625 C 20.972656 -16.765625 20.585938 -16.472656 20.296875 -15.890625 C 20.003906 -15.316406 19.859375 -14.570312 19.859375 -13.65625 C 19.816406 -11.632812 19.863281 -9.671875 20 -7.765625 C 20.144531 -5.859375 20.316406 -3.992188 20.515625 -2.171875 C 20.609375 -1.546875 20.453125 -1.039062 20.046875 -0.65625 C 19.640625 -0.269531 19.144531 -0.0234375 18.5625 0.078125 C 17.644531 0.117188 16.453125 0.160156 14.984375 0.203125 C 13.515625 0.253906 12.320312 0.28125 11.40625 0.28125 Z M 11.40625 0.28125 "/></g></g></g><path stroke-linecap="butt" transform="matrix(0.75, 0, 0, 0.75, -7.160164, 180.276199)" fill="none" stroke-linejoin="miter" d="M 28.656262 104.376533 C 27.447929 104.376533 25.781262 104.345283 23.645845 104.282783 C 21.531262 104.220283 19.765637 104.126533 18.359387 104.001533 C 17.588553 103.876533 16.947928 103.553616 16.427095 103.037991 C 15.91147 102.517158 15.651053 101.845283 15.651053 101.011949 C 15.791678 95.230699 16.06772 89.439032 16.47397 83.636948 C 16.901053 77.824448 17.401053 72.173406 17.979178 66.683822 C 18.562512 61.199447 19.135428 56.09528 19.697928 51.376529 C 20.276054 46.642154 20.828137 42.511945 21.343762 38.985903 C 21.671887 37.574445 22.604179 36.77757 24.140637 36.59007 C 25.036471 36.459862 26.156262 36.381737 27.505221 36.350487 C 28.854179 36.319237 30.197929 36.287987 31.546888 36.256737 C 32.895846 36.209862 34.026054 36.189028 34.932304 36.189028 C 36.343763 36.189028 38.078138 36.225487 40.130222 36.303612 C 42.182305 36.366112 43.88543 36.459862 45.234389 36.59007 C 46.390639 36.71507 47.35418 37.048403 48.125014 37.600487 C 48.890639 38.147362 49.473972 39.064028 49.864597 40.350487 C 50.177097 41.37132 50.520847 42.74632 50.901056 44.485904 C 51.291681 46.209862 51.708347 48.022362 52.145847 49.918196 C 52.598972 51.814029 53.020847 53.564029 53.416681 55.162988 C 54.307306 58.25153 55.218764 60.793197 56.140639 62.78278 C 57.083348 64.772363 58.072931 65.767155 59.104181 65.767155 C 60.062514 65.767155 60.98439 64.787988 61.880223 62.829655 C 62.791681 60.871322 63.661473 58.480696 64.489598 55.65778 C 65.197931 52.959863 65.901057 50.136946 66.604182 47.194237 C 67.312515 44.230695 67.89064 41.949445 68.343765 40.350487 C 68.661473 39.064028 69.197932 38.147362 69.968765 37.600487 C 70.750015 37.048403 71.718765 36.71507 72.85939 36.59007 C 74.208349 36.459862 75.911474 36.366112 77.963557 36.303612 C 80.031266 36.225487 81.739599 36.189028 83.088558 36.189028 C 84.437516 36.189028 86.197933 36.225487 88.380225 36.303612 C 90.557308 36.366112 92.416683 36.459862 93.953142 36.59007 C 95.505225 36.77757 96.437517 37.574445 96.750017 38.985903 C 97.453142 43.735904 98.20835 49.480696 99.005225 56.22028 C 99.822934 62.959863 100.5521 70.18903 101.192726 77.902573 C 101.838559 85.610906 102.250017 93.31924 102.442726 101.011949 C 102.442726 101.845283 102.182309 102.517158 101.666684 103.037991 C 101.145851 103.553616 100.505225 103.876533 99.734392 104.001533 C 98.390642 104.126533 96.671892 104.220283 94.588558 104.282783 C 92.500017 104.345283 90.848975 104.376533 89.625016 104.376533 C 88.796891 104.376533 87.671891 104.376533 86.265641 104.376533 C 84.854183 104.376533 83.416683 104.345283 81.958349 104.282783 C 80.515641 104.220283 79.348974 104.126533 78.458349 104.001533 C 77.687516 103.876533 77.046891 103.553616 76.531266 103.037991 C 76.010432 102.517158 75.786474 101.814033 75.848974 100.918199 C 76.114599 98.928616 76.322932 96.662991 76.479182 94.126532 C 76.640641 91.584865 76.765641 89.053615 76.859391 86.527573 C 76.968766 83.991115 76.984391 81.78799 76.906266 79.923406 C 76.843766 76.126531 76.583349 73.220281 76.130224 71.199447 C 75.687516 69.178614 75.057307 68.168197 74.223974 68.168197 C 73.187515 68.168197 72.317724 69.246322 71.614599 71.412989 C 70.911474 73.558822 70.14064 76.136948 69.312515 79.147364 C 68.854182 80.886948 68.354182 82.642156 67.807307 84.41299 C 67.270848 86.168198 66.744807 87.918198 66.229182 89.657782 C 64.817723 94.220282 62.411473 96.501532 59.010431 96.501532 C 57.208348 96.501532 55.760431 95.902574 54.661472 94.709865 C 53.578139 93.522365 52.687514 91.834865 51.979181 89.657782 C 50.822931 86.053615 49.723972 82.423406 48.687514 78.772364 C 47.984389 75.886948 47.26043 73.449447 46.526055 71.459864 C 45.79168 69.465072 44.911472 68.47028 43.890638 68.47028 C 43.046888 68.47028 42.395847 69.496322 41.942722 71.553614 C 41.500013 73.605697 41.250013 76.522364 41.187513 80.298406 C 41.187513 82.16299 41.234388 84.334865 41.328138 86.814032 C 41.421888 89.28799 41.546888 91.782782 41.703138 94.28799 C 41.880222 96.782782 42.057305 98.991116 42.244805 100.918199 C 42.369805 101.814033 42.161472 102.517158 41.609388 103.037991 C 41.062513 103.553616 40.406263 103.876533 39.63543 104.001533 C 38.744805 104.126533 37.588555 104.220283 36.182305 104.282783 C 34.770846 104.345283 33.375013 104.376533 31.994804 104.376533 C 30.614596 104.376533 29.500012 104.376533 28.656262 104.376533 Z M 125.458352 104.777574 C 119.031268 104.777574 114.130226 102.798408 110.760434 98.850491 C 107.390643 94.902574 105.671892 89.00674 105.609392 81.168198 C 105.671892 78.741114 105.812517 75.918198 106.036476 72.704656 C 106.255226 69.491114 106.557309 66.246322 106.953143 62.97028 C 107.343768 59.694238 107.729184 56.803613 108.104184 54.293196 C 108.307309 52.694238 109.145851 51.798404 110.619809 51.610904 C 111.906268 51.485904 113.473976 51.392154 115.322935 51.329654 C 117.187518 51.251529 118.666685 51.215071 119.765643 51.215071 C 120.927102 51.215071 122.546894 51.251529 124.635435 51.329654 C 126.718769 51.392154 128.432311 51.485904 129.781269 51.610904 C 130.614602 51.673404 131.286477 51.980696 131.807311 52.527571 C 132.322936 53.079654 132.479186 53.767154 132.276061 54.600488 C 131.630228 57.93903 131.067727 61.340072 130.583352 64.803613 C 130.109394 68.267155 129.875019 71.251531 129.875019 73.761947 C 129.875019 76.834864 130.432311 79.532781 131.546894 81.85049 C 132.677103 84.152573 134.432311 85.308823 136.81252 85.308823 C 138.286478 85.308823 139.515645 84.735906 140.505228 83.590073 C 141.505228 82.428615 142.244812 80.902573 142.713562 79.006739 C 143.203145 77.110906 143.442728 75.100489 143.442728 72.985906 C 143.442728 71.511947 143.395853 69.735905 143.302103 67.647364 C 143.208353 65.56403 143.067728 63.371322 142.880228 61.06403 C 142.692728 58.746321 142.463562 56.590071 142.197937 54.600488 C 142.135437 53.767154 142.322937 53.095279 142.760437 52.574446 C 143.21877 52.058821 143.864603 51.735904 144.713562 51.610904 C 146.00002 51.485904 147.682312 51.392154 149.770854 51.329654 C 151.854187 51.251529 153.505229 51.215071 154.729187 51.215071 C 155.953146 51.215071 157.364604 51.251529 158.963563 51.329654 C 160.562521 51.392154 162.00523 51.485904 163.28648 51.610904 C 164.901063 51.798404 165.770855 52.735904 165.901063 54.412988 C 166.604188 63.517155 167.09898 71.746322 167.38023 79.100489 C 167.677105 86.449448 167.828147 93.72549 167.828147 100.918199 C 167.828147 102.657783 166.989605 103.689033 165.312521 104.001533 C 164.088563 104.189033 162.494813 104.298408 160.536479 104.329658 C 158.593771 104.360908 156.979188 104.376533 155.692729 104.376533 C 154.343771 104.376533 152.677104 104.345283 150.68752 104.282783 C 148.692729 104.220283 146.953145 104.126533 145.463562 104.001533 C 144.760437 103.876533 144.119812 103.569241 143.536478 103.084866 C 142.973978 102.595283 142.786478 101.939033 142.973978 101.105699 C 143.364603 99.053616 143.65627 97.293199 143.84377 95.81924 C 144.03127 94.345282 144.12502 92.860907 144.12502 91.371324 C 144.12502 90.355698 143.848978 89.829657 143.302103 89.798407 C 142.755228 89.767157 142.322937 90.199448 142.010437 91.090073 C 140.536478 95.527574 138.364603 98.923407 135.494811 101.272366 C 132.645853 103.605699 129.296894 104.777574 125.458352 104.777574 Z M 191.130231 104.777574 C 184.703148 104.777574 179.807314 102.798408 176.432314 98.850491 C 173.062522 94.902574 171.34898 89.00674 171.28648 81.168198 C 171.34898 78.741114 171.489605 75.918198 171.708355 72.704656 C 171.927105 69.491114 172.234397 66.246322 172.625022 62.97028 C 173.015647 59.694238 173.401064 56.803613 173.776064 54.293196 C 173.979189 52.694238 174.81773 51.798404 176.291689 51.610904 C 177.578147 51.485904 179.145856 51.392154 180.994814 51.329654 C 182.859398 51.251529 184.343773 51.215071 185.442731 51.215071 C 186.598981 51.215071 188.223981 51.251529 190.307315 51.329654 C 192.390648 51.392154 194.109398 51.485904 195.458357 51.610904 C 196.286482 51.673404 196.963565 51.980696 197.47919 52.527571 C 197.994815 53.079654 198.151065 53.767154 197.94794 54.600488 C 197.307315 57.93903 196.744815 61.340072 196.255232 64.803613 C 195.786482 68.267155 195.552107 71.251531 195.552107 73.761947 C 195.552107 76.834864 196.109398 79.532781 197.218773 81.85049 C 198.348982 84.152573 200.10419 85.308823 202.489607 85.308823 C 203.958357 85.308823 205.192732 84.735906 206.177107 83.590073 C 207.182316 82.428615 207.916691 80.902573 208.390649 79.006739 C 208.875024 77.110906 209.119816 75.100489 209.119816 72.985906 C 209.119816 71.511947 209.072941 69.735905 208.979191 67.647364 C 208.885441 65.56403 208.739608 63.371322 208.552108 61.06403 C 208.364608 58.746321 208.140649 56.590071 207.869816 54.600488 C 207.807316 53.767154 207.994816 53.095279 208.437524 52.574446 C 208.890649 52.058821 209.541691 51.735904 210.385441 51.610904 C 211.671899 51.485904 213.3594 51.392154 215.442733 51.329654 C 217.526066 51.251529 219.182317 51.215071 220.406275 51.215071 C 221.625025 51.215071 223.036484 51.251529 224.635442 51.329654 C 226.2344 51.392154 227.677109 51.485904 228.963567 51.610904 C 230.578151 51.798404 231.447942 52.735904 231.572942 54.412988 C 232.276067 63.517155 232.770859 71.746322 233.052109 79.100489 C 233.354193 86.449448 233.500026 93.72549 233.500026 100.918199 C 233.500026 102.657783 232.661484 103.689033 230.984401 104.001533 C 229.760442 104.189033 228.171901 104.298408 226.213567 104.329658 C 224.270859 104.360908 222.656275 104.376533 221.369817 104.376533 C 220.020858 104.376533 218.348983 104.345283 216.3594 104.282783 C 214.369816 104.220283 212.630233 104.126533 211.140649 104.001533 C 210.432316 103.876533 209.791691 103.569241 209.213566 103.084866 C 208.645858 102.595283 208.458358 101.939033 208.645858 101.105699 C 209.041691 99.053616 209.328149 97.293199 209.515649 95.81924 C 209.708358 94.345282 209.802108 92.860907 209.802108 91.371324 C 209.802108 90.355698 209.526066 89.829657 208.979191 89.798407 C 208.427108 89.767157 207.994816 90.199448 207.682316 91.090073 C 206.208357 95.527574 204.041691 98.923407 201.171899 101.272366 C 198.317732 103.605699 194.968773 104.777574 191.130231 104.777574 Z M 191.130231 104.777574 " stroke="#7c4300" stroke-width="7.223782" stroke-opacity="1" stroke-miterlimit="4"/><g fill="#f8bb74" fill-opacity="1"><g transform="translate(3.503898, 258.276194)"><g><path d="M 10.828125 0.28125 C 9.921875 0.28125 8.671875 0.253906 7.078125 0.203125 C 5.484375 0.160156 4.160156 0.09375 3.109375 0 C 2.523438 -0.09375 2.039062 -0.332031 1.65625 -0.71875 C 1.269531 -1.101562 1.078125 -1.609375 1.078125 -2.234375 C 1.179688 -6.566406 1.390625 -10.910156 1.703125 -15.265625 C 2.015625 -19.628906 2.382812 -23.867188 2.8125 -27.984375 C 3.25 -32.109375 3.679688 -35.9375 4.109375 -39.46875 C 4.546875 -43.007812 4.957031 -46.109375 5.34375 -48.765625 C 5.582031 -49.816406 6.28125 -50.414062 7.4375 -50.5625 C 8.113281 -50.65625 8.957031 -50.710938 9.96875 -50.734375 C 10.976562 -50.765625 11.988281 -50.789062 13 -50.8125 C 14.007812 -50.84375 14.851562 -50.859375 15.53125 -50.859375 C 16.59375 -50.859375 17.894531 -50.832031 19.4375 -50.78125 C 20.976562 -50.726562 22.253906 -50.65625 23.265625 -50.5625 C 24.128906 -50.46875 24.847656 -50.210938 25.421875 -49.796875 C 26.003906 -49.390625 26.441406 -48.707031 26.734375 -47.75 C 26.972656 -46.976562 27.234375 -45.941406 27.515625 -44.640625 C 27.804688 -43.335938 28.117188 -41.972656 28.453125 -40.546875 C 28.796875 -39.128906 29.113281 -37.820312 29.40625 -36.625 C 30.070312 -34.3125 30.753906 -32.40625 31.453125 -30.90625 C 32.148438 -29.414062 32.882812 -28.671875 33.65625 -28.671875 C 34.382812 -28.671875 35.082031 -29.40625 35.75 -30.875 C 36.425781 -32.34375 37.078125 -34.140625 37.703125 -36.265625 C 38.234375 -38.285156 38.765625 -40.398438 39.296875 -42.609375 C 39.828125 -44.828125 40.257812 -46.539062 40.59375 -47.75 C 40.832031 -48.707031 41.238281 -49.390625 41.8125 -49.796875 C 42.394531 -50.210938 43.117188 -50.46875 43.984375 -50.5625 C 44.992188 -50.65625 46.269531 -50.726562 47.8125 -50.78125 C 49.351562 -50.832031 50.628906 -50.859375 51.640625 -50.859375 C 52.660156 -50.859375 53.988281 -50.832031 55.625 -50.78125 C 57.257812 -50.726562 58.65625 -50.65625 59.8125 -50.5625 C 60.96875 -50.414062 61.664062 -49.816406 61.90625 -48.765625 C 62.4375 -45.191406 63 -40.878906 63.59375 -35.828125 C 64.195312 -30.773438 64.738281 -25.359375 65.21875 -19.578125 C 65.707031 -13.796875 66.023438 -8.015625 66.171875 -2.234375 C 66.171875 -1.609375 65.976562 -1.101562 65.59375 -0.71875 C 65.207031 -0.332031 64.722656 -0.09375 64.140625 0 C 63.128906 0.09375 61.84375 0.160156 60.28125 0.203125 C 58.71875 0.253906 57.476562 0.28125 56.5625 0.28125 C 55.9375 0.28125 55.09375 0.28125 54.03125 0.28125 C 52.96875 0.28125 51.894531 0.253906 50.8125 0.203125 C 49.726562 0.160156 48.851562 0.09375 48.1875 0 C 47.601562 -0.09375 47.117188 -0.332031 46.734375 -0.71875 C 46.347656 -1.101562 46.179688 -1.632812 46.234375 -2.3125 C 46.421875 -3.800781 46.570312 -5.492188 46.6875 -7.390625 C 46.8125 -9.296875 46.910156 -11.203125 46.984375 -13.109375 C 47.054688 -15.015625 47.070312 -16.664062 47.03125 -18.0625 C 46.976562 -20.90625 46.78125 -23.082031 46.4375 -24.59375 C 46.101562 -26.113281 45.625 -26.875 45 -26.875 C 44.226562 -26.875 43.578125 -26.066406 43.046875 -24.453125 C 42.515625 -22.835938 41.9375 -20.898438 41.3125 -18.640625 C 40.976562 -17.335938 40.601562 -16.023438 40.1875 -14.703125 C 39.78125 -13.378906 39.382812 -12.066406 39 -10.765625 C 37.945312 -7.347656 36.144531 -5.640625 33.59375 -5.640625 C 32.238281 -5.640625 31.148438 -6.082031 30.328125 -6.96875 C 29.515625 -7.863281 28.84375 -9.128906 28.3125 -10.765625 C 27.445312 -13.460938 26.628906 -16.179688 25.859375 -18.921875 C 25.328125 -21.085938 24.785156 -22.914062 24.234375 -24.40625 C 23.679688 -25.90625 23.019531 -26.65625 22.25 -26.65625 C 21.625 -26.65625 21.140625 -25.882812 20.796875 -24.34375 C 20.460938 -22.800781 20.269531 -20.609375 20.21875 -17.765625 C 20.21875 -16.367188 20.253906 -14.742188 20.328125 -12.890625 C 20.398438 -11.035156 20.492188 -9.171875 20.609375 -7.296875 C 20.734375 -5.421875 20.867188 -3.757812 21.015625 -2.3125 C 21.117188 -1.632812 20.960938 -1.101562 20.546875 -0.71875 C 20.140625 -0.332031 19.644531 -0.09375 19.0625 0 C 18.394531 0.09375 17.53125 0.160156 16.46875 0.203125 C 15.40625 0.253906 14.359375 0.28125 13.328125 0.28125 C 12.296875 0.28125 11.460938 0.28125 10.828125 0.28125 Z M 10.828125 0.28125 "/></g></g></g><g fill="#f8bb74" fill-opacity="1"><g transform="translate(70.743128, 258.276194)"><g><path d="M 16.1875 0.578125 C 11.363281 0.578125 7.6875 -0.898438 5.15625 -3.859375 C 2.632812 -6.828125 1.347656 -11.25 1.296875 -17.125 C 1.347656 -18.945312 1.457031 -21.0625 1.625 -23.46875 C 1.789062 -25.882812 2.019531 -28.316406 2.3125 -30.765625 C 2.601562 -33.222656 2.890625 -35.390625 3.171875 -37.265625 C 3.316406 -38.472656 3.945312 -39.148438 5.0625 -39.296875 C 6.019531 -39.390625 7.195312 -39.457031 8.59375 -39.5 C 9.988281 -39.550781 11.097656 -39.578125 11.921875 -39.578125 C 12.785156 -39.578125 14 -39.550781 15.5625 -39.5 C 17.132812 -39.457031 18.425781 -39.390625 19.4375 -39.296875 C 20.0625 -39.242188 20.566406 -39.015625 20.953125 -38.609375 C 21.335938 -38.203125 21.457031 -37.6875 21.3125 -37.0625 C 20.832031 -34.550781 20.410156 -31.992188 20.046875 -29.390625 C 19.679688 -26.796875 19.5 -24.5625 19.5 -22.6875 C 19.5 -20.375 19.921875 -18.347656 20.765625 -16.609375 C 21.609375 -14.878906 22.921875 -14.015625 24.703125 -14.015625 C 25.804688 -14.015625 26.734375 -14.445312 27.484375 -15.3125 C 28.234375 -16.175781 28.785156 -17.316406 29.140625 -18.734375 C 29.503906 -20.160156 29.6875 -21.671875 29.6875 -23.265625 C 29.6875 -24.367188 29.648438 -25.703125 29.578125 -27.265625 C 29.503906 -28.828125 29.394531 -30.472656 29.25 -32.203125 C 29.101562 -33.941406 28.9375 -35.5625 28.75 -37.0625 C 28.695312 -37.6875 28.835938 -38.191406 29.171875 -38.578125 C 29.515625 -38.960938 30 -39.203125 30.625 -39.296875 C 31.59375 -39.390625 32.859375 -39.457031 34.421875 -39.5 C 35.984375 -39.550781 37.222656 -39.578125 38.140625 -39.578125 C 39.054688 -39.578125 40.113281 -39.550781 41.3125 -39.5 C 42.519531 -39.457031 43.601562 -39.390625 44.5625 -39.296875 C 45.769531 -39.148438 46.421875 -38.453125 46.515625 -37.203125 C 47.046875 -30.359375 47.421875 -24.179688 47.640625 -18.671875 C 47.859375 -13.160156 47.96875 -7.707031 47.96875 -2.3125 C 47.96875 -1.007812 47.335938 -0.238281 46.078125 0 C 45.171875 0.144531 43.984375 0.226562 42.515625 0.25 C 41.046875 0.269531 39.828125 0.28125 38.859375 0.28125 C 37.847656 0.28125 36.59375 0.253906 35.09375 0.203125 C 33.601562 0.160156 32.304688 0.09375 31.203125 0 C 30.671875 -0.09375 30.1875 -0.320312 29.75 -0.6875 C 29.320312 -1.050781 29.179688 -1.546875 29.328125 -2.171875 C 29.617188 -3.710938 29.832031 -5.035156 29.96875 -6.140625 C 30.113281 -7.242188 30.1875 -8.351562 30.1875 -9.46875 C 30.1875 -10.238281 29.984375 -10.632812 29.578125 -10.65625 C 29.171875 -10.675781 28.847656 -10.347656 28.609375 -9.671875 C 27.492188 -6.347656 25.863281 -3.804688 23.71875 -2.046875 C 21.582031 -0.296875 19.070312 0.578125 16.1875 0.578125 Z M 16.1875 0.578125 "/></g></g></g><g fill="#f8bb74" fill-opacity="1"><g transform="translate(119.998931, 258.276194)"><g><path d="M 16.1875 0.578125 C 11.363281 0.578125 7.6875 -0.898438 5.15625 -3.859375 C 2.632812 -6.828125 1.347656 -11.25 1.296875 -17.125 C 1.347656 -18.945312 1.457031 -21.0625 1.625 -23.46875 C 1.789062 -25.882812 2.019531 -28.316406 2.3125 -30.765625 C 2.601562 -33.222656 2.890625 -35.390625 3.171875 -37.265625 C 3.316406 -38.472656 3.945312 -39.148438 5.0625 -39.296875 C 6.019531 -39.390625 7.195312 -39.457031 8.59375 -39.5 C 9.988281 -39.550781 11.097656 -39.578125 11.921875 -39.578125 C 12.785156 -39.578125 14 -39.550781 15.5625 -39.5 C 17.132812 -39.457031 18.425781 -39.390625 19.4375 -39.296875 C 20.0625 -39.242188 20.566406 -39.015625 20.953125 -38.609375 C 21.335938 -38.203125 21.457031 -37.6875 21.3125 -37.0625 C 20.832031 -34.550781 20.410156 -31.992188 20.046875 -29.390625 C 19.679688 -26.796875 19.5 -24.5625 19.5 -22.6875 C 19.5 -20.375 19.921875 -18.347656 20.765625 -16.609375 C 21.609375 -14.878906 22.921875 -14.015625 24.703125 -14.015625 C 25.804688 -14.015625 26.734375 -14.445312 27.484375 -15.3125 C 28.234375 -16.175781 28.785156 -17.316406 29.140625 -18.734375 C 29.503906 -20.160156 29.6875 -21.671875 29.6875 -23.265625 C 29.6875 -24.367188 29.648438 -25.703125 29.578125 -27.265625 C 29.503906 -28.828125 29.394531 -30.472656 29.25 -32.203125 C 29.101562 -33.941406 28.9375 -35.5625 28.75 -37.0625 C 28.695312 -37.6875 28.835938 -38.191406 29.171875 -38.578125 C 29.515625 -38.960938 30 -39.203125 30.625 -39.296875 C 31.59375 -39.390625 32.859375 -39.457031 34.421875 -39.5 C 35.984375 -39.550781 37.222656 -39.578125 38.140625 -39.578125 C 39.054688 -39.578125 40.113281 -39.550781 41.3125 -39.5 C 42.519531 -39.457031 43.601562 -39.390625 44.5625 -39.296875 C 45.769531 -39.148438 46.421875 -38.453125 46.515625 -37.203125 C 47.046875 -30.359375 47.421875 -24.179688 47.640625 -18.671875 C 47.859375 -13.160156 47.96875 -7.707031 47.96875 -2.3125 C 47.96875 -1.007812 47.335938 -0.238281 46.078125 0 C 45.171875 0.144531 43.984375 0.226562 42.515625 0.25 C 41.046875 0.269531 39.828125 0.28125 38.859375 0.28125 C 37.847656 0.28125 36.59375 0.253906 35.09375 0.203125 C 33.601562 0.160156 32.304688 0.09375 31.203125 0 C 30.671875 -0.09375 30.1875 -0.320312 29.75 -0.6875 C 29.320312 -1.050781 29.179688 -1.546875 29.328125 -2.171875 C 29.617188 -3.710938 29.832031 -5.035156 29.96875 -6.140625 C 30.113281 -7.242188 30.1875 -8.351562 30.1875 -9.46875 C 30.1875 -10.238281 29.984375 -10.632812 29.578125 -10.65625 C 29.171875 -10.675781 28.847656 -10.347656 28.609375 -9.671875 C 27.492188 -6.347656 25.863281 -3.804688 23.71875 -2.046875 C 21.582031 -0.296875 19.070312 0.578125 16.1875 0.578125 Z M 16.1875 0.578125 "/></g></g></g><g fill="#f8bb74" fill-opacity="1"><g transform="translate(169.265609, 258.276194)"><g/></g></g><g fill="#f8bb74" fill-opacity="1"><g transform="translate(189.487936, 258.276194)"><g/></g></g><g fill="#f8bb74" fill-opacity="1"><g transform="translate(209.710263, 258.276194)"><g/></g></g><g fill="#f8bb74" fill-opacity="1"><g transform="translate(229.932589, 258.276194)"><g/></g></g><g fill="#f8bb74" fill-opacity="1"><g transform="translate(250.154916, 258.276194)"><g/></g></g><g fill="#f8bb74" fill-opacity="1"><g transform="translate(270.377243, 258.276194)"><g/></g></g><g fill="#f8bb74" fill-opacity="1"><g transform="translate(290.599569, 258.276194)"><g/></g></g><g fill="#f8bb74" fill-opacity="1"><g transform="translate(310.821896, 258.276194)"><g/></g></g><g fill="#f8bb74" fill-opacity="1"><g transform="translate(331.044223, 258.276194)"><g/></g></g><g fill="#f8bb74" fill-opacity="1"><g transform="translate(351.266549, 258.276194)"><g/></g></g><path stroke-linecap="butt" transform="matrix(0.75, 0, 0, 0.75, -7.160164, 180.276199)" fill="none" stroke-linejoin="miter" d="M 266.973986 104.777574 C 265.234403 104.777574 263.109403 104.761949 260.598986 104.730699 C 258.109402 104.699449 255.505236 104.626533 252.791694 104.517158 C 250.098985 104.423408 247.541693 104.329658 245.130235 104.235908 C 242.729193 104.142158 240.734401 104.064033 239.135443 104.001533 C 238.30211 103.939033 237.598984 103.600491 237.015651 102.991116 C 236.437526 102.376533 236.145859 101.657783 236.145859 100.824449 C 236.145859 93.110907 236.270859 85.423406 236.520859 77.756739 C 236.791693 70.079655 237.109401 62.881738 237.489609 56.173405 C 237.880234 49.465071 238.260443 43.735904 238.640651 38.985903 C 238.781276 37.511945 239.619818 36.71507 241.156276 36.59007 C 246.546902 36.256737 251.791694 36.095278 256.885444 36.095278 C 261.994819 36.095278 267.348986 36.095278 272.942737 36.095278 C 281.927112 36.095278 288.713571 37.189028 293.307321 39.386945 C 297.901072 41.564029 300.197947 44.93382 300.197947 49.496321 C 300.197947 53.084863 298.473988 56.37653 295.026072 59.371321 C 291.588571 62.350488 286.666696 64.480697 280.255237 65.767155 C 279.364612 66.079655 278.895862 66.511947 278.848987 67.058822 C 278.817737 67.610905 279.286487 68.037989 280.255237 68.355697 C 285.526071 69.324447 289.87503 70.808822 293.307321 72.798406 C 296.739613 74.787989 299.286489 77.037989 300.947947 79.548406 C 302.62503 82.03799 303.463572 84.60049 303.463572 87.235907 C 303.463572 90.574448 302.390655 93.371324 300.244822 95.63174 C 298.09378 97.871324 295.234405 99.668199 291.661488 101.011949 C 288.104196 102.360908 284.166696 103.324449 279.859404 103.907783 C 275.562529 104.485908 271.265653 104.777574 266.973986 104.777574 Z M 263.890653 63.840072 C 268.437528 63.194238 271.583362 62.168197 273.322945 60.756738 C 275.062529 59.350488 275.93232 57.866113 275.93232 56.31403 C 275.93232 53.178613 273.234403 51.610904 267.843778 51.610904 C 267.197945 51.610904 266.484403 51.610904 265.703153 51.610904 C 264.93232 51.610904 264.291695 51.642154 263.77607 51.704654 C 261.989611 51.704654 261.093778 52.506738 261.093778 54.105696 C 260.968778 56.673405 260.968778 59.246321 261.093778 61.819238 C 261.093778 62.647363 261.343778 63.230697 261.848986 63.558822 C 262.364611 63.871322 263.046903 63.965072 263.890653 63.840072 Z M 264.270861 86.767157 C 265.098986 86.829657 266.041695 86.860907 267.08857 86.860907 C 268.156278 86.860907 269.114612 86.860907 269.958362 86.860907 C 272.515653 86.860907 274.541695 86.303615 276.046904 85.189031 C 277.567737 84.058823 278.328154 82.501531 278.328154 80.511948 C 278.328154 78.454656 277.072945 76.662989 274.567737 75.126531 C 272.05732 73.574447 268.531278 72.506739 263.984403 71.928614 C 263.078153 71.741114 262.364611 71.886947 261.848986 72.376531 C 261.343778 72.845281 261.093778 73.532781 261.093778 74.444239 C 261.031278 77.517156 261.031278 80.595281 261.093778 83.683823 C 261.093778 85.735906 262.151069 86.767157 264.270861 86.767157 Z M 320.979198 104.777574 C 316.104198 104.777574 312.348989 103.621324 309.713573 101.319241 C 307.078156 99.001532 305.765656 95.298407 305.765656 90.220282 C 305.765656 86.88174 306.838572 84.074448 308.984406 81.803615 C 311.145864 79.517156 314.041698 77.694239 317.66149 76.350489 C 321.281282 75.001531 325.250032 74.074447 329.557324 73.574447 C 332.567741 73.183822 334.859408 72.735906 336.427116 72.235906 C 338.010449 71.715072 338.802116 70.814031 338.802116 69.527572 C 338.802116 68.621322 338.250033 67.798405 337.156283 67.058822 C 336.072949 66.324447 334.151074 65.954655 331.390657 65.954655 C 329.713574 65.954655 327.802115 66.199447 325.656282 66.683822 C 323.510448 67.168197 321.322948 67.84528 319.093781 68.704655 C 316.885448 69.569239 314.84899 70.642155 312.984406 71.928614 C 312.151073 72.756739 311.338573 72.970281 310.536489 72.564031 C 309.739614 72.142156 309.338573 71.282781 309.338573 70.00153 C 309.276073 67.944239 309.307323 65.72028 309.432323 63.324447 C 309.557323 60.90778 309.682323 58.704655 309.807323 56.715071 C 309.932323 55.100488 310.546906 54.074446 311.640656 53.636946 C 313.505239 52.991113 316.281281 52.366113 319.963573 51.751529 C 323.666698 51.142154 328.213574 50.834863 333.604199 50.834863 C 340.156283 50.834863 345.3542 51.657779 349.192742 53.303613 C 353.046909 54.933821 355.880242 57.178613 357.682326 60.03278 C 359.484409 62.881738 360.572951 66.142155 360.947951 69.81403 C 361.276076 72.506739 361.583368 75.673406 361.864618 79.308823 C 362.145868 82.933823 362.401076 86.636948 362.619826 90.433823 C 362.854201 94.209865 363.005243 97.735907 363.067743 101.011949 C 363.067743 102.689033 362.234409 103.689033 360.572951 104.001533 C 359.348992 104.126533 357.838576 104.220283 356.036492 104.282783 C 354.250034 104.345283 352.682325 104.376533 351.333367 104.376533 C 350.046909 104.376533 348.520867 104.345283 346.744825 104.282783 C 344.973992 104.220283 343.4167 104.126533 342.067741 104.001533 C 340.859408 103.876533 339.921908 103.459866 339.244824 102.751533 C 338.572949 102.048408 338.328158 101.178616 338.515658 100.142157 C 338.640658 99.251532 338.802116 98.116116 338.989616 96.735907 C 339.192741 95.355699 339.322949 94.147365 339.385449 93.110907 C 339.447949 92.157782 339.223991 91.616115 338.708366 91.491115 C 338.187533 91.35049 337.739616 91.735907 337.364616 92.642157 C 335.750033 96.939032 333.484407 100.032782 330.567741 101.928616 C 327.656282 103.829658 324.458365 104.777574 320.979198 104.777574 Z M 332.828157 88.293198 C 333.656282 88.293198 334.552116 88.027573 335.510449 87.496323 C 336.479199 86.94424 337.317741 86.147365 338.026074 85.095281 C 338.729199 84.027573 339.083366 82.751531 339.083366 81.261948 C 339.083366 80.178614 338.791699 79.287989 338.213574 78.579656 C 337.645866 77.876531 336.786491 77.522364 335.625033 77.522364 C 333.822949 77.522364 332.166699 78.152573 330.666699 79.407781 C 329.16149 80.642156 328.406282 82.22549 328.406282 84.152573 C 328.406282 86.91299 329.880241 88.293198 332.828157 88.293198 Z M 379.630244 104.376533 C 378.218785 104.376533 376.473994 104.345283 374.39066 104.282783 C 372.302118 104.220283 370.51566 104.126533 369.026076 104.001533 C 368.322951 103.876533 367.708368 103.553616 367.192743 103.037991 C 366.692743 102.517158 366.473993 101.876533 366.536493 101.105699 C 366.536493 93.53799 366.614618 86.97549 366.770868 81.428615 C 366.927118 75.860906 367.177118 70.918197 367.520868 66.590072 C 367.885451 62.246322 368.291701 58.22028 368.744826 54.506738 C 368.869826 53.798404 369.161493 53.157779 369.614618 52.574446 C 370.067743 51.996321 370.651077 51.673404 371.354202 51.610904 C 372.562535 51.485904 374.145868 51.392154 376.104202 51.329654 C 378.062535 51.251529 379.656285 51.215071 380.880244 51.215071 C 382.098994 51.215071 383.645869 51.251529 385.510453 51.329654 C 387.375036 51.392154 389.046911 51.485904 390.52087 51.610904 C 391.286495 51.673404 391.942745 52.043196 392.494828 52.720279 C 393.041703 53.392154 393.182328 54.110904 392.916703 54.881738 C 392.276078 57.261946 391.80212 59.110905 391.505245 60.428613 C 391.223995 61.746322 391.05212 63.173405 390.98962 64.709863 C 390.98962 65.730697 391.260453 66.25153 391.812536 66.28278 C 392.359411 66.31403 392.791703 65.918197 393.104203 65.084863 C 394.781286 60.334863 397.093787 56.793196 400.041703 54.459863 C 403.005245 52.105696 406.406287 50.928613 410.244829 50.928613 C 416.359413 50.928613 421.062538 53.319238 424.354205 58.100488 C 427.661497 62.881738 429.635455 69.225489 430.281289 77.126531 C 430.484414 78.928614 430.630247 81.25674 430.723997 84.105698 C 430.817747 86.959865 430.895872 89.918198 430.96358 92.970282 C 431.026081 96.027574 431.026081 98.834866 430.96358 101.392158 C 430.895872 102.944241 430.067747 103.814033 428.468789 104.001533 C 426.854205 104.126533 425.192747 104.220283 423.484413 104.282783 C 421.791705 104.345283 420.208371 104.376533 418.734413 104.376533 C 417.197955 104.376533 415.526079 104.345283 413.723996 104.282783 C 411.921913 104.220283 410.192746 104.126533 408.531287 104.001533 C 407.822954 103.876533 407.197954 103.553616 406.645871 103.037991 C 406.098996 102.517158 405.854204 101.845283 405.921912 101.011949 C 406.250037 97.798407 406.520871 94.642157 406.744829 91.53799 C 406.963579 88.418198 407.072954 85.668198 407.072954 83.282781 C 407.010454 80.084864 406.270871 77.319239 404.859412 74.985906 C 403.453162 72.631739 401.52087 71.459864 399.078162 71.459864 C 396.58337 71.459864 394.609411 72.647364 393.151078 75.032781 C 391.70837 77.397364 390.98962 80.178614 390.98962 83.376531 C 391.05212 85.949448 391.14587 88.777573 391.27087 91.866115 C 391.411495 94.954657 391.609411 98.037991 391.859411 101.105699 C 391.984411 101.939033 391.77087 102.595283 391.223995 103.084866 C 390.692745 103.569241 390.072953 103.876533 389.364619 104.001533 C 388.083369 104.126533 386.473994 104.220283 384.546911 104.282783 C 382.619827 104.345283 380.979202 104.376533 379.630244 104.376533 Z M 447.802123 104.376533 C 446.515665 104.376533 444.786498 104.345283 442.604206 104.282783 C 440.427123 104.220283 438.604206 104.126533 437.130248 104.001533 C 436.406289 103.876533 435.786497 103.553616 435.270872 103.037991 C 434.770872 102.517158 434.515664 101.876533 434.515664 101.105699 C 434.515664 95.527574 434.567747 89.782782 434.661497 83.871323 C 434.755247 77.965073 434.880247 72.173406 435.036497 66.496322 C 435.208372 60.808822 435.421914 55.506738 435.671914 50.600488 C 435.921914 45.678612 436.244831 41.423404 436.635456 37.834862 C 436.822956 36.360903 437.723998 35.52757 439.338581 35.34007 C 440.625039 35.199445 442.145873 35.100486 443.901081 35.037986 C 445.671915 34.975486 447.104207 34.944236 448.203165 34.944236 C 448.96879 34.944236 450.00004 34.944236 451.28129 34.944236 C 452.567749 34.944236 453.901082 34.975486 455.28129 35.037986 C 456.661499 35.100486 457.796916 35.199445 458.687541 35.34007 C 459.520874 35.40257 460.192749 35.709862 460.713582 36.256737 C 461.229207 36.793195 461.427124 37.480695 461.302124 38.329653 C 461.031291 40.444237 460.718791 43.032779 460.359416 46.084862 C 460.015666 49.126529 459.692749 52.241113 459.395874 55.423404 C 459.114624 58.590071 458.973999 61.454655 458.973999 64.027572 C 458.973999 65.31403 459.197957 66.475489 459.656291 67.506739 C 460.109416 68.527572 460.656291 69.037989 461.302124 69.037989 C 462.442749 69.037989 463.526083 68.543197 464.546916 67.553614 C 465.578166 66.553614 466.510458 65.28278 467.343791 63.746322 C 468.187541 62.209863 468.885458 60.569238 469.437541 58.829655 C 469.984416 57.090071 470.322958 55.485904 470.447958 54.011946 C 470.572958 52.600488 471.401083 51.798404 472.937542 51.610904 C 474.349 51.485904 476.06775 51.392154 478.088584 51.329654 C 480.109417 51.251529 481.828167 51.215071 483.239626 51.215071 C 484.520876 51.215071 486.114626 51.230696 488.010459 51.261946 C 489.906293 51.293196 491.531293 51.407779 492.880251 51.610904 C 493.770876 51.673404 494.44796 52.011946 494.901085 52.621321 C 495.35421 53.235904 495.47921 53.892154 495.276085 54.600488 C 494.44796 59.662988 492.04171 63.965072 488.057334 67.506739 C 484.078167 71.032781 478.744834 73.152572 472.06775 73.855697 C 471.114625 73.918197 470.635458 74.241114 470.635458 74.819239 C 470.635458 75.402572 471.114625 75.720281 472.06775 75.782781 C 479.906292 76.428614 486.151084 78.772364 490.807334 82.814031 C 495.463585 86.860907 498.270877 93.017157 499.224002 101.298408 C 499.369835 102.001533 499.208377 102.610908 498.755252 103.131741 C 498.302127 103.647366 497.625043 103.970283 496.734418 104.095283 C 495.38546 104.157783 493.718793 104.220283 491.724001 104.282783 C 489.734418 104.345283 488.130251 104.376533 486.906293 104.376533 C 486.010459 104.376533 484.776084 104.376533 483.192751 104.376533 C 481.625042 104.376533 480.015667 104.345283 478.369834 104.282783 C 476.739625 104.220283 475.385458 104.157783 474.302125 104.095283 C 472.750042 103.907783 471.9115 103.074449 471.7865 101.600491 C 471.6615 99.345282 471.260458 97.048407 470.588583 94.709865 C 469.9115 92.360907 469.057333 90.204657 468.026083 88.246323 C 467.00525 86.28799 465.901083 84.704656 464.708374 83.496323 C 463.515666 82.272365 462.348999 81.66299 461.203166 81.66299 C 460.562541 81.66299 460.046916 82.048406 459.656291 82.814031 C 459.260457 83.584865 459.067749 84.579656 459.067749 85.798406 C 459.005249 88.496323 459.067749 91.116115 459.255249 93.652574 C 459.458374 96.178615 459.687541 98.662991 459.937541 101.105699 C 460.062541 101.939033 459.848999 102.610908 459.302124 103.131741 C 458.765666 103.647366 458.119832 103.970283 457.348999 104.095283 C 456.12504 104.157783 454.536499 104.220283 452.578165 104.282783 C 450.614623 104.345283 449.026082 104.376533 447.802123 104.376533 Z M 447.802123 104.376533 " stroke="#343030" stroke-width="7.223782" stroke-opacity="1" stroke-miterlimit="4"/><g fill="#d60d61" fill-opacity="1"><g transform="translate(6.714835, 258.276194)"><g/></g></g><g fill="#d60d61" fill-opacity="1"><g transform="translate(26.937162, 258.276194)"><g/></g></g><g fill="#d60d61" fill-opacity="1"><g transform="translate(47.159488, 258.276194)"><g/></g></g><g fill="#d60d61" fill-opacity="1"><g transform="translate(67.381815, 258.276194)"><g/></g></g><g fill="#d60d61" fill-opacity="1"><g transform="translate(87.604142, 258.276194)"><g/></g></g><g fill="#d60d61" fill-opacity="1"><g transform="translate(107.826468, 258.276194)"><g/></g></g><g fill="#d60d61" fill-opacity="1"><g transform="translate(128.048795, 258.276194)"><g/></g></g><g fill="#d60d61" fill-opacity="1"><g transform="translate(148.271122, 258.276194)"><g/></g></g><g fill="#d60d61" fill-opacity="1"><g transform="translate(168.503887, 258.276194)"><g><path d="M 24.5625 0.578125 C 23.257812 0.578125 21.664062 0.5625 19.78125 0.53125 C 17.90625 0.507812 15.957031 0.460938 13.9375 0.390625 C 11.914062 0.316406 10 0.242188 8.1875 0.171875 C 6.382812 0.109375 4.882812 0.0507812 3.6875 0 C 3.0625 -0.0507812 2.53125 -0.300781 2.09375 -0.75 C 1.65625 -1.207031 1.4375 -1.753906 1.4375 -2.390625 C 1.4375 -8.160156 1.53125 -13.921875 1.71875 -19.671875 C 1.914062 -25.429688 2.160156 -30.828125 2.453125 -35.859375 C 2.742188 -40.890625 3.035156 -45.191406 3.328125 -48.765625 C 3.421875 -49.867188 4.046875 -50.46875 5.203125 -50.5625 C 9.242188 -50.800781 13.175781 -50.921875 17 -50.921875 C 20.832031 -50.921875 24.84375 -50.921875 29.03125 -50.921875 C 35.78125 -50.921875 40.875 -50.101562 44.3125 -48.46875 C 47.757812 -46.832031 49.484375 -44.304688 49.484375 -40.890625 C 49.484375 -38.191406 48.191406 -35.722656 45.609375 -33.484375 C 43.035156 -31.242188 39.34375 -29.640625 34.53125 -28.671875 C 33.851562 -28.429688 33.5 -28.109375 33.46875 -27.703125 C 33.445312 -27.296875 33.800781 -26.972656 34.53125 -26.734375 C 38.476562 -26.003906 41.738281 -24.894531 44.3125 -23.40625 C 46.894531 -21.914062 48.8125 -20.226562 50.0625 -18.34375 C 51.3125 -16.46875 51.9375 -14.539062 51.9375 -12.5625 C 51.9375 -10.0625 51.128906 -7.96875 49.515625 -6.28125 C 47.898438 -4.59375 45.753906 -3.242188 43.078125 -2.234375 C 40.410156 -1.222656 37.460938 -0.5 34.234375 -0.0625 C 31.015625 0.363281 27.789062 0.578125 24.5625 0.578125 Z M 22.25 -30.125 C 25.664062 -30.601562 28.023438 -31.367188 29.328125 -32.421875 C 30.628906 -33.484375 31.28125 -34.59375 31.28125 -35.75 C 31.28125 -38.113281 29.253906 -39.296875 25.203125 -39.296875 C 24.722656 -39.296875 24.191406 -39.296875 23.609375 -39.296875 C 23.035156 -39.296875 22.554688 -39.269531 22.171875 -39.21875 C 20.828125 -39.21875 20.15625 -38.617188 20.15625 -37.421875 C 20.0625 -35.492188 20.0625 -33.566406 20.15625 -31.640625 C 20.15625 -31.015625 20.347656 -30.582031 20.734375 -30.34375 C 21.117188 -30.101562 21.625 -30.03125 22.25 -30.125 Z M 22.53125 -12.9375 C 23.15625 -12.882812 23.863281 -12.859375 24.65625 -12.859375 C 25.457031 -12.859375 26.171875 -12.859375 26.796875 -12.859375 C 28.722656 -12.859375 30.25 -13.28125 31.375 -14.125 C 32.507812 -14.96875 33.078125 -16.132812 33.078125 -17.625 C 33.078125 -19.164062 32.140625 -20.515625 30.265625 -21.671875 C 28.390625 -22.828125 25.742188 -23.617188 22.328125 -24.046875 C 21.648438 -24.191406 21.117188 -24.082031 20.734375 -23.71875 C 20.347656 -23.363281 20.15625 -22.847656 20.15625 -22.171875 C 20.101562 -19.859375 20.101562 -17.546875 20.15625 -15.234375 C 20.15625 -13.703125 20.945312 -12.9375 22.53125 -12.9375 Z M 22.53125 -12.9375 "/></g></g></g><g fill="#d60d61" fill-opacity="1"><g transform="translate(221.298591, 258.276194)"><g><path d="M 12.28125 0.578125 C 8.625 0.578125 5.804688 -0.285156 3.828125 -2.015625 C 1.847656 -3.753906 0.859375 -6.523438 0.859375 -10.328125 C 0.859375 -12.828125 1.664062 -14.929688 3.28125 -16.640625 C 4.894531 -18.359375 7.0625 -19.722656 9.78125 -20.734375 C 12.507812 -21.742188 15.484375 -22.441406 18.703125 -22.828125 C 20.972656 -23.117188 22.695312 -23.457031 23.875 -23.84375 C 25.050781 -24.226562 25.640625 -24.898438 25.640625 -25.859375 C 25.640625 -26.535156 25.226562 -27.148438 24.40625 -27.703125 C 23.59375 -28.253906 22.148438 -28.53125 20.078125 -28.53125 C 18.828125 -28.53125 17.394531 -28.347656 15.78125 -27.984375 C 14.164062 -27.628906 12.523438 -27.125 10.859375 -26.46875 C 9.203125 -25.820312 7.675781 -25.015625 6.28125 -24.046875 C 5.65625 -23.421875 5.039062 -23.265625 4.4375 -23.578125 C 3.84375 -23.890625 3.546875 -24.53125 3.546875 -25.5 C 3.492188 -27.039062 3.515625 -28.710938 3.609375 -30.515625 C 3.703125 -32.328125 3.800781 -33.976562 3.90625 -35.46875 C 4 -36.664062 4.453125 -37.4375 5.265625 -37.78125 C 6.671875 -38.257812 8.753906 -38.726562 11.515625 -39.1875 C 14.285156 -39.644531 17.695312 -39.875 21.75 -39.875 C 26.65625 -39.875 30.550781 -39.257812 33.4375 -38.03125 C 36.332031 -36.800781 38.453125 -35.113281 39.796875 -32.96875 C 41.148438 -30.832031 41.96875 -28.390625 42.25 -25.640625 C 42.5 -23.617188 42.726562 -21.25 42.9375 -18.53125 C 43.15625 -15.8125 43.347656 -13.03125 43.515625 -10.1875 C 43.691406 -7.34375 43.800781 -4.691406 43.84375 -2.234375 C 43.84375 -0.984375 43.21875 -0.238281 41.96875 0 C 41.050781 0.09375 39.914062 0.160156 38.5625 0.203125 C 37.21875 0.253906 36.039062 0.28125 35.03125 0.28125 C 34.070312 0.28125 32.925781 0.253906 31.59375 0.203125 C 30.269531 0.160156 29.101562 0.09375 28.09375 0 C 27.1875 -0.09375 26.476562 -0.40625 25.96875 -0.9375 C 25.457031 -1.46875 25.273438 -2.117188 25.421875 -2.890625 C 25.523438 -3.566406 25.644531 -4.421875 25.78125 -5.453125 C 25.925781 -6.484375 26.023438 -7.382812 26.078125 -8.15625 C 26.128906 -8.882812 25.960938 -9.296875 25.578125 -9.390625 C 25.191406 -9.484375 24.851562 -9.195312 24.5625 -8.53125 C 23.351562 -5.300781 21.65625 -2.972656 19.46875 -1.546875 C 17.28125 -0.128906 14.882812 0.578125 12.28125 0.578125 Z M 21.171875 -11.78125 C 21.796875 -11.78125 22.46875 -11.984375 23.1875 -12.390625 C 23.90625 -12.796875 24.53125 -13.394531 25.0625 -14.1875 C 25.59375 -14.988281 25.859375 -15.941406 25.859375 -17.046875 C 25.859375 -17.867188 25.640625 -18.539062 25.203125 -19.0625 C 24.773438 -19.59375 24.128906 -19.859375 23.265625 -19.859375 C 21.910156 -19.859375 20.664062 -19.390625 19.53125 -18.453125 C 18.40625 -17.515625 17.84375 -16.320312 17.84375 -14.875 C 17.84375 -12.8125 18.953125 -11.78125 21.171875 -11.78125 Z M 21.171875 -11.78125 "/></g></g></g><g fill="#d60d61" fill-opacity="1"><g transform="translate(266.365491, 258.276194)"><g><path d="M 11.203125 0.28125 C 10.140625 0.28125 8.820312 0.253906 7.25 0.203125 C 5.6875 0.160156 4.351562 0.09375 3.25 0 C 2.71875 -0.09375 2.257812 -0.332031 1.875 -0.71875 C 1.488281 -1.101562 1.320312 -1.585938 1.375 -2.171875 C 1.375 -7.847656 1.429688 -12.769531 1.546875 -16.9375 C 1.671875 -21.101562 1.863281 -24.8125 2.125 -28.0625 C 2.394531 -31.3125 2.695312 -34.332031 3.03125 -37.125 C 3.125 -37.65625 3.335938 -38.132812 3.671875 -38.5625 C 4.015625 -39 4.453125 -39.242188 4.984375 -39.296875 C 5.898438 -39.390625 7.09375 -39.457031 8.5625 -39.5 C 10.03125 -39.550781 11.222656 -39.578125 12.140625 -39.578125 C 13.054688 -39.578125 14.210938 -39.550781 15.609375 -39.5 C 17.003906 -39.457031 18.253906 -39.390625 19.359375 -39.296875 C 19.929688 -39.242188 20.421875 -38.960938 20.828125 -38.453125 C 21.242188 -37.953125 21.359375 -37.414062 21.171875 -36.84375 C 20.679688 -35.0625 20.328125 -33.675781 20.109375 -32.6875 C 19.898438 -31.695312 19.769531 -30.625 19.71875 -29.46875 C 19.71875 -28.695312 19.921875 -28.300781 20.328125 -28.28125 C 20.742188 -28.257812 21.070312 -28.5625 21.3125 -29.1875 C 22.5625 -32.75 24.289062 -35.40625 26.5 -37.15625 C 28.71875 -38.914062 31.273438 -39.796875 34.171875 -39.796875 C 38.742188 -39.796875 42.269531 -38 44.75 -34.40625 C 47.226562 -30.820312 48.707031 -26.070312 49.1875 -20.15625 C 49.332031 -18.800781 49.441406 -17.050781 49.515625 -14.90625 C 49.585938 -12.769531 49.644531 -10.554688 49.6875 -8.265625 C 49.738281 -5.984375 49.742188 -3.878906 49.703125 -1.953125 C 49.648438 -0.796875 49.019531 -0.144531 47.8125 0 C 46.613281 0.09375 45.375 0.160156 44.09375 0.203125 C 42.820312 0.253906 41.632812 0.28125 40.53125 0.28125 C 39.375 0.28125 38.117188 0.253906 36.765625 0.203125 C 35.421875 0.160156 34.117188 0.09375 32.859375 0 C 32.335938 -0.09375 31.867188 -0.332031 31.453125 -0.71875 C 31.046875 -1.101562 30.867188 -1.609375 30.921875 -2.234375 C 31.160156 -4.640625 31.363281 -7.007812 31.53125 -9.34375 C 31.695312 -11.6875 31.78125 -13.75 31.78125 -15.53125 C 31.726562 -17.9375 31.171875 -20.019531 30.109375 -21.78125 C 29.054688 -23.539062 27.613281 -24.421875 25.78125 -24.421875 C 23.90625 -24.421875 22.425781 -23.523438 21.34375 -21.734375 C 20.257812 -19.953125 19.71875 -17.859375 19.71875 -15.453125 C 19.769531 -13.523438 19.84375 -11.40625 19.9375 -9.09375 C 20.03125 -6.789062 20.175781 -4.484375 20.375 -2.171875 C 20.46875 -1.546875 20.304688 -1.050781 19.890625 -0.6875 C 19.484375 -0.320312 19.015625 -0.09375 18.484375 0 C 17.523438 0.09375 16.320312 0.160156 14.875 0.203125 C 13.4375 0.253906 12.210938 0.28125 11.203125 0.28125 Z M 11.203125 0.28125 "/></g></g></g><g fill="#d60d61" fill-opacity="1"><g transform="translate(317.282414, 258.276194)"><g><path d="M 11.40625 0.28125 C 10.445312 0.28125 9.148438 0.253906 7.515625 0.203125 C 5.878906 0.160156 4.503906 0.09375 3.390625 0 C 2.859375 -0.09375 2.398438 -0.332031 2.015625 -0.71875 C 1.628906 -1.101562 1.4375 -1.585938 1.4375 -2.171875 C 1.4375 -6.359375 1.472656 -10.664062 1.546875 -15.09375 C 1.617188 -19.53125 1.710938 -23.878906 1.828125 -28.140625 C 1.953125 -32.398438 2.109375 -36.367188 2.296875 -40.046875 C 2.492188 -43.734375 2.738281 -46.925781 3.03125 -49.625 C 3.175781 -50.726562 3.851562 -51.351562 5.0625 -51.5 C 6.019531 -51.59375 7.160156 -51.664062 8.484375 -51.71875 C 9.804688 -51.769531 10.878906 -51.796875 11.703125 -51.796875 C 12.273438 -51.796875 13.039062 -51.796875 14 -51.796875 C 14.96875 -51.796875 15.96875 -51.769531 17 -51.71875 C 18.039062 -51.664062 18.898438 -51.59375 19.578125 -51.5 C 20.203125 -51.457031 20.707031 -51.226562 21.09375 -50.8125 C 21.476562 -50.40625 21.625 -49.890625 21.53125 -49.265625 C 21.332031 -47.671875 21.097656 -45.726562 20.828125 -43.4375 C 20.566406 -41.15625 20.328125 -38.820312 20.109375 -36.4375 C 19.898438 -34.050781 19.796875 -31.898438 19.796875 -29.984375 C 19.796875 -29.015625 19.960938 -28.144531 20.296875 -27.375 C 20.628906 -26.601562 21.039062 -26.21875 21.53125 -26.21875 C 22.394531 -26.21875 23.210938 -26.585938 23.984375 -27.328125 C 24.753906 -28.078125 25.453125 -29.03125 26.078125 -30.1875 C 26.703125 -31.34375 27.21875 -32.570312 27.625 -33.875 C 28.039062 -35.175781 28.296875 -36.378906 28.390625 -37.484375 C 28.484375 -38.546875 29.109375 -39.148438 30.265625 -39.296875 C 31.328125 -39.390625 32.613281 -39.457031 34.125 -39.5 C 35.644531 -39.550781 36.9375 -39.578125 38 -39.578125 C 38.957031 -39.578125 40.144531 -39.566406 41.5625 -39.546875 C 42.988281 -39.523438 44.207031 -39.441406 45.21875 -39.296875 C 45.894531 -39.242188 46.398438 -38.988281 46.734375 -38.53125 C 47.066406 -38.070312 47.164062 -37.582031 47.03125 -37.0625 C 46.394531 -33.25 44.582031 -30.019531 41.59375 -27.375 C 38.613281 -24.726562 34.617188 -23.140625 29.609375 -22.609375 C 28.890625 -22.554688 28.53125 -22.3125 28.53125 -21.875 C 28.53125 -21.445312 28.890625 -21.210938 29.609375 -21.171875 C 35.484375 -20.679688 40.164062 -18.921875 43.65625 -15.890625 C 47.15625 -12.859375 49.265625 -8.234375 49.984375 -2.015625 C 50.078125 -1.492188 49.957031 -1.039062 49.625 -0.65625 C 49.289062 -0.269531 48.785156 -0.0234375 48.109375 0.078125 C 47.097656 0.117188 45.84375 0.160156 44.34375 0.203125 C 42.851562 0.253906 41.648438 0.28125 40.734375 0.28125 C 40.066406 0.28125 39.140625 0.28125 37.953125 0.28125 C 36.773438 0.28125 35.570312 0.253906 34.34375 0.203125 C 33.113281 0.160156 32.09375 0.117188 31.28125 0.078125 C 30.125 -0.0664062 29.5 -0.695312 29.40625 -1.8125 C 29.300781 -3.488281 28.992188 -5.207031 28.484375 -6.96875 C 27.984375 -8.726562 27.347656 -10.34375 26.578125 -11.8125 C 25.804688 -13.28125 24.972656 -14.472656 24.078125 -15.390625 C 23.191406 -16.304688 22.316406 -16.765625 21.453125 -16.765625 C 20.972656 -16.765625 20.585938 -16.472656 20.296875 -15.890625 C 20.003906 -15.316406 19.859375 -14.570312 19.859375 -13.65625 C 19.816406 -11.632812 19.863281 -9.671875 20 -7.765625 C 20.144531 -5.859375 20.316406 -3.992188 20.515625 -2.171875 C 20.609375 -1.546875 20.453125 -1.039062 20.046875 -0.65625 C 19.640625 -0.269531 19.144531 -0.0234375 18.5625 0.078125 C 17.644531 0.117188 16.453125 0.160156 14.984375 0.203125 C 13.515625 0.253906 12.320312 0.28125 11.40625 0.28125 Z M 11.40625 0.28125 "/></g></g></g></svg>